<svg xmlns="http://www.w3.org/2000/svg" x="0px" y="0px" width="62" height="62" viewBox="0 0 48 48">
<path fill="#80deea" d="M24,34C11.1,34,1,29.6,1,24c0-5.6,10.1-10,23-10c12.9,0,23,4.4,23,10C47,29.6,36.9,34,24,34z M24,16	c-12.6,0-21,4.1-21,8c0,3.9,8.4,8,21,8s21-4.1,21-8C45,20.1,36.6,16,24,16z"/>
<path fill="#80deea" d="M15.1,44.6c-1,0-1.8-0.2-2.6-0.7C7.6,41.1,8.9,30.2,15.3,19c3-5.2,6.7-9.6,10.3-12.4c3.9-3,7.4-3.9,9.8-2.5	c2.5,1.4,3.4,4.9,2.8,9.8c-0.6,4.6-2.6,10-5.6,15.2c-3,5.2-6.7,9.6-10.3,12.4C19.7,43.5,17.2,44.6,15.1,44.6z M32.9,5.4	c-1.6,0-3.7,0.9-6,2.7c-3.4,2.7-6.9,6.9-9.8,11.9c-6.1,10.6-7.2,20.3-2.9,22.2c4.3,2.4,14.2-2.8,20.3-13.4c2.9-5,4.8-10.1,5.4-14.4	c0.5-4-0.1-6.8-1.8-7.8C34,5.6,33.5,5.4,32.9,5.4z"/>
<path fill="#80deea" d="M33,44.6c-5,0-12.2-6.1-17.6-15.6C8.9,17.8,7.6,6.9,12.5,4.1c2.4-1.4,5.9-0.5,9.8,2.5	c3.7,2.9,7.4,7.3,10.3,12.4c3,5.2,5,10.6,5.6,15.2c0.7,4.9-0.3,8.3-2.8,9.8C34.7,44.4,33.9,44.6,33,44.6z M13.5,5.8	c-3.3,1.9-2.7,11.3,3.3,22.4c6.1,10.7,14.8,16.1,19.1,13.7c4.3-2.4,3.1-12.1-3-22.7c-2.9-5-6.4-9.2-9.8-11.9	c-2.3-1.8-4.4-2.7-6.1-2.7C16.3,4.6,14.8,5,13.5,5.8z"/>
<circle cx="24" cy="24" r="4" fill="#80deea"/>
</svg>